# xmcd
#
# Track frame offsets: 
#        150
#        22948
#        49327
#        105427
#        119244
#        193149
#
# Disc length: 2985 seconds
#
# Revision: 0
# Processed by: cddbd v1.5.2PL0 Copyright (c) Steve Scherf et al.
# Submitted via: ExactAudioCopy v1.1
#
DISCID=500ba706
DTITLE=Bernard Allison Group - Live At The Jazzhaus [disk 2]
DYEAR=2011
DGENRE=Modern Electric Blues
TTITLE0=Groove with Me
TTITLE1=The Otherside
TTITLE2=Just My Guitar and Me
TTITLE3=Tobys B3
TTITLE4=Serious
TTITLE5=Chills Thrills
EXTD=
EXTT0=
EXTT1=
EXTT2=
EXTT3=
EXTT4=
EXTT5=
PLAYORDER=
